<?xml version="1.0" encoding="UTF-8"?>
<svg xmlns="http://www.w3.org/2000/svg" viewBox="0 0 20 20">
	<style>
		path { fill: #000000; }
		@media (prefers-color-scheme: dark) {
		path { fill: #ffffff; }
		}
	</style>
	<path d="M10,0C4.48,0,0,4.48,0,10s4.48,10,10,10,10-4.48,10-10S15.52,0,10,0ZM3.71,5.05c1.17-1.48,2.82-2.5,4.66-2.89.2-.04.41.04.52.22.58.89,1.07,1.83,1.46,2.82.05.13.05.27-.01.39-.12.25-.41.36-.66.25-1.7-.78-3.66-.79-5.37-.03-.17.08-.37.05-.51-.06-.22-.17-.25-.49-.08-.7ZM6.97,16.25c-2.49,0-4.5-2.01-4.5-4.5s2.01-4.5,4.5-4.5,4.5,2.01,4.5,4.5-2.01,4.5-4.5,4.5ZM11.14,17.92c-.18.03-.37-.05-.48-.2-.16-.22-.11-.54.11-.7,1.59-1.15,2.57-2.95,2.68-4.91.18-3.15-.48-6.3-1.9-9.11-.06-.11-.07-.24-.04-.36.07-.27.35-.42.62-.35,3.06.85,5.33,3.43,5.78,6.57.63,4.37-2.4,8.43-6.78,9.06Z" />
</svg>